<mxfile host="app.diagrams.net" agent="Mozilla/5.0 (Windows NT 10.0; Win64; x64) AppleWebKit/537.36 (KHTML, like Gecko) Chrome/109.0.0.0 Safari/537.36" version="24.7.12">
  <diagram name="Página-1" id="UMzBXDggHSwoHHbEA_F-">
    <mxGraphModel dx="2808" dy="1913" grid="1" gridSize="10" guides="1" tooltips="1" connect="1" arrows="1" fold="1" page="1" pageScale="1" pageWidth="827" pageHeight="1169" math="0" shadow="0">
      <root>
        <mxCell id="0" />
        <mxCell id="1" parent="0" />
        <mxCell id="Xi8M5J_qFJPJecMSVVCh-1" value="&lt;b&gt;ClienteRestaurante&lt;/b&gt;" style="swimlane;fontStyle=0;childLayout=stackLayout;horizontal=1;startSize=26;fillColor=#94A8B8;horizontalStack=0;resizeParent=1;resizeParentMax=0;resizeLast=0;collapsible=1;marginBottom=0;whiteSpace=wrap;html=1;strokeColor=#23445d;verticalAlign=middle;" parent="1" vertex="1">
          <mxGeometry x="-660" y="-38" width="250" height="60" as="geometry" />
        </mxCell>
        <mxCell id="Xi8M5J_qFJPJecMSVVCh-2" value="- nomeCliente: String&lt;div&gt;- telefoneCliente: String&lt;br&gt;&lt;div&gt;&lt;br&gt;&lt;/div&gt;&lt;/div&gt;" style="text;strokeColor=none;fillColor=none;align=left;verticalAlign=middle;spacingLeft=4;spacingRight=4;overflow=hidden;rotatable=0;points=[[0,0.5],[1,0.5]];portConstraint=eastwest;whiteSpace=wrap;html=1;" parent="Xi8M5J_qFJPJecMSVVCh-1" vertex="1">
          <mxGeometry y="26" width="250" height="34" as="geometry" />
        </mxCell>
        <mxCell id="Xi8M5J_qFJPJecMSVVCh-4" value="&lt;div&gt;&lt;br&gt;&lt;/div&gt;" style="text;strokeColor=default;fillColor=none;align=left;verticalAlign=top;spacingLeft=4;spacingRight=4;overflow=hidden;rotatable=0;points=[[0,0.5],[1,0.5]];portConstraint=eastwest;whiteSpace=wrap;html=1;" parent="1" vertex="1">
          <mxGeometry x="-660" y="22" width="250" height="80" as="geometry" />
        </mxCell>
        <mxCell id="Xi8M5J_qFJPJecMSVVCh-9" value="&lt;div&gt;+&amp;nbsp; ClienteRestaurante();&lt;/div&gt;&lt;div&gt;+ getNomeCliente();&lt;br&gt;&lt;/div&gt;&lt;div&gt;+ setNomeCliente();&lt;br&gt;&lt;/div&gt;&lt;div&gt;+ getTelefoneCliente();&lt;br&gt;&lt;/div&gt;&lt;div&gt;+ setTelefoneCliente():&lt;div&gt;&lt;br&gt;&lt;/div&gt;&lt;/div&gt;" style="text;strokeColor=none;fillColor=none;align=left;verticalAlign=middle;spacingLeft=4;spacingRight=4;overflow=hidden;rotatable=0;points=[[0,0.5],[1,0.5]];portConstraint=eastwest;whiteSpace=wrap;html=1;" parent="1" vertex="1">
          <mxGeometry x="-660" y="26" width="250" height="76" as="geometry" />
        </mxCell>
        <mxCell id="sDyU43Bn7JAy6TUhjJ2v-32" style="edgeStyle=orthogonalEdgeStyle;rounded=0;orthogonalLoop=1;jettySize=auto;html=1;exitX=0.5;exitY=0;exitDx=0;exitDy=0;" edge="1" parent="1" source="sDyU43Bn7JAy6TUhjJ2v-1">
          <mxGeometry relative="1" as="geometry">
            <mxPoint x="-525" y="-300" as="targetPoint" />
          </mxGeometry>
        </mxCell>
        <mxCell id="sDyU43Bn7JAy6TUhjJ2v-1" value="Garçom" style="swimlane;fontStyle=1;align=center;verticalAlign=top;childLayout=stackLayout;horizontal=1;startSize=26;horizontalStack=0;resizeParent=1;resizeParentMax=0;resizeLast=0;collapsible=1;marginBottom=0;whiteSpace=wrap;html=1;fillColor=#BAC8D3;" vertex="1" parent="1">
          <mxGeometry x="-650" y="-250" width="250" height="160" as="geometry" />
        </mxCell>
        <mxCell id="sDyU43Bn7JAy6TUhjJ2v-2" value="- registroGarcom; String&lt;div&gt;- salarioBaseGarcom: double&lt;/div&gt;&lt;div&gt;- gorjetaGarcom: double&amp;nbsp;&lt;/div&gt;&lt;div&gt;- mesasResponsavel: Mesa&lt;/div&gt;" style="text;strokeColor=none;fillColor=none;align=left;verticalAlign=middle;spacingLeft=4;spacingRight=4;overflow=hidden;rotatable=0;points=[[0,0.5],[1,0.5]];portConstraint=eastwest;whiteSpace=wrap;html=1;" vertex="1" parent="sDyU43Bn7JAy6TUhjJ2v-1">
          <mxGeometry y="26" width="250" height="64" as="geometry" />
        </mxCell>
        <mxCell id="sDyU43Bn7JAy6TUhjJ2v-3" value="" style="line;strokeWidth=1;fillColor=none;align=left;verticalAlign=middle;spacingTop=-1;spacingLeft=3;spacingRight=3;rotatable=0;labelPosition=right;points=[];portConstraint=eastwest;strokeColor=inherit;" vertex="1" parent="sDyU43Bn7JAy6TUhjJ2v-1">
          <mxGeometry y="90" width="250" height="8" as="geometry" />
        </mxCell>
        <mxCell id="sDyU43Bn7JAy6TUhjJ2v-4" value="+ adicionarMesa(Mesa mesa)&lt;div&gt;+ removerMesa(Mesa mesa)&lt;/div&gt;&lt;div&gt;+ registrarPedido(double valorPedido)&lt;/div&gt;&lt;div&gt;+ salarioFinalGarcom()&lt;/div&gt;" style="text;strokeColor=none;fillColor=none;align=left;verticalAlign=middle;spacingLeft=4;spacingRight=4;overflow=hidden;rotatable=0;points=[[0,0.5],[1,0.5]];portConstraint=eastwest;whiteSpace=wrap;html=1;" vertex="1" parent="sDyU43Bn7JAy6TUhjJ2v-1">
          <mxGeometry y="98" width="250" height="62" as="geometry" />
        </mxCell>
        <mxCell id="sDyU43Bn7JAy6TUhjJ2v-5" value="Usuário" style="swimlane;fontStyle=1;align=center;verticalAlign=middle;childLayout=stackLayout;horizontal=1;startSize=26;horizontalStack=0;resizeParent=1;resizeParentMax=0;resizeLast=0;collapsible=1;marginBottom=0;whiteSpace=wrap;html=1;fillColor=#94A8B8;" vertex="1" parent="1">
          <mxGeometry x="-650" y="-360" width="250" height="60" as="geometry" />
        </mxCell>
        <mxCell id="sDyU43Bn7JAy6TUhjJ2v-6" value="- nome: String&lt;div&gt;- email: String&lt;/div&gt;&lt;div&gt;&lt;br&gt;&lt;/div&gt;" style="text;strokeColor=none;fillColor=none;align=left;verticalAlign=middle;spacingLeft=4;spacingRight=4;overflow=hidden;rotatable=0;points=[[0,0.5],[1,0.5]];portConstraint=eastwest;whiteSpace=wrap;html=1;" vertex="1" parent="sDyU43Bn7JAy6TUhjJ2v-5">
          <mxGeometry y="26" width="250" height="34" as="geometry" />
        </mxCell>
        <mxCell id="sDyU43Bn7JAy6TUhjJ2v-16" value="Horario" style="swimlane;fontStyle=1;align=center;verticalAlign=top;childLayout=stackLayout;horizontal=1;startSize=26;horizontalStack=0;resizeParent=1;resizeParentMax=0;resizeLast=0;collapsible=1;marginBottom=0;whiteSpace=wrap;html=1;fillColor=#94A8B8;" vertex="1" parent="1">
          <mxGeometry x="-1270" y="-360" width="248" height="80" as="geometry" />
        </mxCell>
        <mxCell id="sDyU43Bn7JAy6TUhjJ2v-17" value="- Horario : LocalTime;&lt;div&gt;- Nome: String;&lt;br&gt;&lt;div&gt;- Disponibilidade : Boolean;&lt;/div&gt;&lt;/div&gt;" style="text;strokeColor=none;fillColor=none;align=left;verticalAlign=middle;spacingLeft=4;spacingRight=4;overflow=hidden;rotatable=0;points=[[0,0.5],[1,0.5]];portConstraint=eastwest;whiteSpace=wrap;html=1;" vertex="1" parent="sDyU43Bn7JAy6TUhjJ2v-16">
          <mxGeometry y="26" width="248" height="44" as="geometry" />
        </mxCell>
        <mxCell id="sDyU43Bn7JAy6TUhjJ2v-18" value="" style="line;strokeWidth=1;fillColor=none;align=left;verticalAlign=middle;spacingTop=-1;spacingLeft=3;spacingRight=3;rotatable=0;labelPosition=right;points=[];portConstraint=eastwest;strokeColor=inherit;" vertex="1" parent="sDyU43Bn7JAy6TUhjJ2v-16">
          <mxGeometry y="70" width="248" height="10" as="geometry" />
        </mxCell>
        <mxCell id="sDyU43Bn7JAy6TUhjJ2v-31" style="edgeStyle=orthogonalEdgeStyle;rounded=0;orthogonalLoop=1;jettySize=auto;html=1;exitX=0.5;exitY=0;exitDx=0;exitDy=0;entryX=0.5;entryY=1;entryDx=0;entryDy=0;" edge="1" parent="1" source="sDyU43Bn7JAy6TUhjJ2v-19" target="sDyU43Bn7JAy6TUhjJ2v-16">
          <mxGeometry relative="1" as="geometry" />
        </mxCell>
        <mxCell id="sDyU43Bn7JAy6TUhjJ2v-19" value="Reserva" style="swimlane;fontStyle=1;align=center;verticalAlign=top;childLayout=stackLayout;horizontal=1;startSize=26;horizontalStack=0;resizeParent=1;resizeParentMax=0;resizeLast=0;collapsible=1;marginBottom=0;whiteSpace=wrap;html=1;fillColor=#BAC8D3;" vertex="1" parent="1">
          <mxGeometry x="-1270" y="-228" width="248" height="170" as="geometry" />
        </mxCell>
        <mxCell id="sDyU43Bn7JAy6TUhjJ2v-20" value="- Data : LocalDate;&lt;div&gt;- horario : ArrayList&amp;lt;Horario&amp;gt;; (Vetor de Horarios de 15 em 15 minutos;&lt;/div&gt;&lt;div&gt;- horarioInicio, horarioFinal : LocalTime&lt;/div&gt;&lt;div&gt;&lt;br&gt;&lt;/div&gt;&lt;div&gt;&lt;br&gt;&lt;/div&gt;" style="text;strokeColor=none;fillColor=none;align=left;verticalAlign=middle;spacingLeft=4;spacingRight=4;overflow=hidden;rotatable=0;points=[[0,0.5],[1,0.5]];portConstraint=eastwest;whiteSpace=wrap;html=1;" vertex="1" parent="sDyU43Bn7JAy6TUhjJ2v-19">
          <mxGeometry y="26" width="248" height="64" as="geometry" />
        </mxCell>
        <mxCell id="sDyU43Bn7JAy6TUhjJ2v-21" value="" style="line;strokeWidth=1;fillColor=none;align=left;verticalAlign=middle;spacingTop=-1;spacingLeft=3;spacingRight=3;rotatable=0;labelPosition=right;points=[];portConstraint=eastwest;strokeColor=inherit;" vertex="1" parent="sDyU43Bn7JAy6TUhjJ2v-19">
          <mxGeometry y="90" width="248" height="10" as="geometry" />
        </mxCell>
        <mxCell id="sDyU43Bn7JAy6TUhjJ2v-22" value="- inserirReserva (String nome,&amp;nbsp;&lt;span style=&quot;background-color: initial;&quot;&gt;LocalTime&lt;/span&gt;&lt;div&gt;&lt;span style=&quot;background-color: initial;&quot;&gt;horario) : Void;&lt;/span&gt;&lt;div&gt;&lt;div&gt;- cancelarReserva (String nome, LocalTime&lt;/div&gt;&lt;div&gt;horario) : Void&lt;/div&gt;&lt;/div&gt;&lt;/div&gt;" style="text;html=1;align=left;verticalAlign=middle;resizable=0;points=[];autosize=1;strokeColor=none;fillColor=none;" vertex="1" parent="sDyU43Bn7JAy6TUhjJ2v-19">
          <mxGeometry y="100" width="248" height="70" as="geometry" />
        </mxCell>
        <mxCell id="sDyU43Bn7JAy6TUhjJ2v-23" value="&lt;b&gt;Mesa&lt;/b&gt;" style="swimlane;fontStyle=0;childLayout=stackLayout;horizontal=1;startSize=26;fillColor=#94A8B8;horizontalStack=0;resizeParent=1;resizeParentMax=0;resizeLast=0;collapsible=1;marginBottom=0;whiteSpace=wrap;html=1;strokeColor=#23445d;" vertex="1" parent="1">
          <mxGeometry x="-960" y="-430" width="250" height="80" as="geometry" />
        </mxCell>
        <mxCell id="sDyU43Bn7JAy6TUhjJ2v-24" value="- Capacidade : Integer;&lt;div&gt;- Numero : Integer;&lt;/div&gt;&lt;div&gt;- Datas[] : Data; (Vetor de Datas;&lt;/div&gt;" style="text;strokeColor=none;fillColor=none;align=left;verticalAlign=middle;spacingLeft=4;spacingRight=4;overflow=hidden;rotatable=0;points=[[0,0.5],[1,0.5]];portConstraint=eastwest;whiteSpace=wrap;html=1;" vertex="1" parent="sDyU43Bn7JAy6TUhjJ2v-23">
          <mxGeometry y="26" width="250" height="54" as="geometry" />
        </mxCell>
        <mxCell id="sDyU43Bn7JAy6TUhjJ2v-25" value="ReservaMesa" style="swimlane;fontStyle=1;align=center;verticalAlign=top;childLayout=stackLayout;horizontal=1;startSize=26;horizontalStack=0;resizeParent=1;resizeParentMax=0;resizeLast=0;collapsible=1;marginBottom=0;whiteSpace=wrap;html=1;fillColor=#BAC8D3;" vertex="1" parent="1">
          <mxGeometry x="-960" y="-298" width="250" height="260" as="geometry" />
        </mxCell>
        <mxCell id="sDyU43Bn7JAy6TUhjJ2v-26" value="- Mesas : ArrayList&amp;lt;Mesas&amp;gt;;&lt;div&gt;- quantidadeAtual, quantidadeMaxima: Int;&lt;/div&gt;" style="text;strokeColor=none;fillColor=none;align=left;verticalAlign=middle;spacingLeft=4;spacingRight=4;overflow=hidden;rotatable=0;points=[[0,0.5],[1,0.5]];portConstraint=eastwest;whiteSpace=wrap;html=1;spacing=2;" vertex="1" parent="sDyU43Bn7JAy6TUhjJ2v-25">
          <mxGeometry y="26" width="250" height="34" as="geometry" />
        </mxCell>
        <mxCell id="sDyU43Bn7JAy6TUhjJ2v-27" value="" style="line;strokeWidth=1;fillColor=none;align=left;verticalAlign=middle;spacingTop=-1;spacingLeft=3;spacingRight=3;rotatable=0;labelPosition=right;points=[];portConstraint=eastwest;strokeColor=inherit;" vertex="1" parent="sDyU43Bn7JAy6TUhjJ2v-25">
          <mxGeometry y="60" width="250" height="10" as="geometry" />
        </mxCell>
        <mxCell id="sDyU43Bn7JAy6TUhjJ2v-28" value="&lt;div&gt;- adicionarMesa(int capacidade, String numero) : void;&lt;/div&gt;- VerificarDisponibilidade (Capacidade: Integer, Data : LocalDate, Hora: LocalTime) : Mesa;&lt;div&gt;- VerificarReserva(Capacidade: Int, Data: LocalDate, Hora: LocalTime, Nome: String): Mesa;&amp;nbsp;&lt;div&gt;- ReservarMesa (Data: LocalDate, Hora : LocalTime, QuantidadePessoas : Integer) : Void;&lt;/div&gt;&lt;div&gt;- CancelarReserva(Data: LocalDate, Hora: LocalTime, quantidadePessoas: int) : void;&lt;/div&gt;&lt;/div&gt;" style="text;strokeColor=none;fillColor=none;align=left;verticalAlign=middle;spacingLeft=4;spacingRight=4;overflow=hidden;rotatable=0;points=[[0,0.5],[1,0.5]];portConstraint=eastwest;whiteSpace=wrap;html=1;" vertex="1" parent="sDyU43Bn7JAy6TUhjJ2v-25">
          <mxGeometry y="70" width="250" height="190" as="geometry" />
        </mxCell>
        <mxCell id="sDyU43Bn7JAy6TUhjJ2v-29" style="edgeStyle=none;rounded=0;orthogonalLoop=1;jettySize=auto;html=1;exitX=0.5;exitY=0;exitDx=0;exitDy=0;entryX=0.5;entryY=1;entryDx=0;entryDy=0;entryPerimeter=0;" edge="1" parent="1" source="sDyU43Bn7JAy6TUhjJ2v-25" target="sDyU43Bn7JAy6TUhjJ2v-24">
          <mxGeometry relative="1" as="geometry">
            <mxPoint x="-770" y="-320" as="targetPoint" />
          </mxGeometry>
        </mxCell>
        <mxCell id="sDyU43Bn7JAy6TUhjJ2v-39" value="PagamentoPedido" style="swimlane;fontStyle=1;align=center;verticalAlign=top;childLayout=stackLayout;horizontal=1;startSize=26;horizontalStack=0;resizeParent=1;resizeParentMax=0;resizeLast=0;collapsible=1;marginBottom=0;whiteSpace=wrap;html=1;fillColor=#94A8B8;strokeColor=#23445d;" vertex="1" parent="1">
          <mxGeometry x="-960" width="250" height="160" as="geometry" />
        </mxCell>
        <mxCell id="sDyU43Bn7JAy6TUhjJ2v-40" value="- idPagamento: String;&lt;div&gt;- pedido: Pedido;&lt;/div&gt;&lt;div&gt;- valorTotal: double;&lt;/div&gt;&lt;div&gt;- pago: boolean;&lt;br/&gt;- formaPagamento: String;&amp;nbsp;&lt;br&gt;&lt;/div&gt;" style="text;strokeColor=none;fillColor=none;align=left;verticalAlign=middle;spacingLeft=4;spacingRight=4;overflow=hidden;rotatable=0;points=[[0,0.5],[1,0.5]];portConstraint=eastwest;whiteSpace=wrap;html=1;" vertex="1" parent="sDyU43Bn7JAy6TUhjJ2v-39">
          <mxGeometry y="26" width="250" height="74" as="geometry" />
        </mxCell>
        <mxCell id="sDyU43Bn7JAy6TUhjJ2v-41" value="" style="line;strokeWidth=1;fillColor=none;align=left;verticalAlign=middle;spacingTop=-1;spacingLeft=3;spacingRight=3;rotatable=0;labelPosition=right;points=[];portConstraint=eastwest;strokeColor=inherit;" vertex="1" parent="sDyU43Bn7JAy6TUhjJ2v-39">
          <mxGeometry y="100" width="250" height="8" as="geometry" />
        </mxCell>
        <mxCell id="sDyU43Bn7JAy6TUhjJ2v-42" value="- calcularTotalPedido(): double;&lt;div&gt;- realizarPagamento(): boolean;&lt;/div&gt;&lt;div&gt;- toString(): String;&lt;br&gt;&lt;/div&gt;" style="text;strokeColor=none;fillColor=none;align=left;verticalAlign=middle;spacingLeft=4;spacingRight=4;overflow=hidden;rotatable=0;points=[[0,0.5],[1,0.5]];portConstraint=eastwest;whiteSpace=wrap;html=1;" vertex="1" parent="sDyU43Bn7JAy6TUhjJ2v-39">
          <mxGeometry y="108" width="250" height="52" as="geometry" />
        </mxCell>
        <mxCell id="sDyU43Bn7JAy6TUhjJ2v-43" value="Menu" style="swimlane;fontStyle=1;align=center;verticalAlign=top;childLayout=stackLayout;horizontal=1;startSize=26;horizontalStack=0;resizeParent=1;resizeParentMax=0;resizeLast=0;collapsible=1;marginBottom=0;whiteSpace=wrap;html=1;fillColor=#94A8B8;" vertex="1" parent="1">
          <mxGeometry x="-1250" y="-30" width="250" height="250" as="geometry" />
        </mxCell>
        <mxCell id="sDyU43Bn7JAy6TUhjJ2v-44" value="&lt;span style=&quot;background-color: initial;&quot;&gt;- nomeRestaurante : String&lt;/span&gt;&lt;br&gt;&lt;span style=&quot;background-color: initial;&quot;&gt;- nomeMenu : String&lt;/span&gt;&lt;br&gt;&lt;span style=&quot;background-color: initial;&quot;&gt;- descricaoMenu : String&lt;/span&gt;&lt;br&gt;&lt;span style=&quot;background-color: initial;&quot;&gt;- horarioDisponibilidade : String&lt;/span&gt;&lt;br&gt;&lt;span style=&quot;background-color: initial;&quot;&gt;- itensMenu : ArrayList&lt;/span&gt;" style="text;strokeColor=none;fillColor=none;align=left;verticalAlign=middle;spacingLeft=4;spacingRight=4;overflow=hidden;rotatable=0;points=[[0,0.5],[1,0.5]];portConstraint=eastwest;whiteSpace=wrap;html=1;" vertex="1" parent="sDyU43Bn7JAy6TUhjJ2v-43">
          <mxGeometry y="26" width="250" height="74" as="geometry" />
        </mxCell>
        <mxCell id="sDyU43Bn7JAy6TUhjJ2v-45" value="" style="line;strokeWidth=1;fillColor=none;align=left;verticalAlign=middle;spacingTop=-1;spacingLeft=3;spacingRight=3;rotatable=0;labelPosition=right;points=[];portConstraint=eastwest;strokeColor=inherit;" vertex="1" parent="sDyU43Bn7JAy6TUhjJ2v-43">
          <mxGeometry y="100" width="250" height="8" as="geometry" />
        </mxCell>
        <mxCell id="sDyU43Bn7JAy6TUhjJ2v-46" value="&lt;span style=&quot;background-color: initial;&quot;&gt;+ adicionarItem(item : itemMenu) : void&lt;/span&gt;&lt;br&gt;&lt;span style=&quot;background-color: initial;&quot;&gt;+ removerItem(item : itemMenu) : void&lt;/span&gt;&lt;br&gt;&lt;span style=&quot;background-color: initial;&quot;&gt;+ atualizarItem(itemAtualizado : itemMenu) : void&lt;/span&gt;&lt;br&gt;&lt;span style=&quot;background-color: initial;&quot;&gt;+ listarItens() : ArrayList&lt;/span&gt;&lt;br&gt;&lt;span style=&quot;background-color: initial;&quot;&gt;+ buscarItemPorNome(nome : String) : itemMenu&lt;/span&gt;&lt;br&gt;&lt;span style=&quot;background-color: initial;&quot;&gt;+ exibirMenu() : void&lt;/span&gt;&lt;br&gt;&lt;span style=&quot;background-color: initial;&quot;&gt;+ obterTotalItens() : int&lt;/span&gt;" style="text;strokeColor=none;fillColor=none;align=left;verticalAlign=middle;spacingLeft=4;spacingRight=4;overflow=hidden;rotatable=0;points=[[0,0.5],[1,0.5]];portConstraint=eastwest;whiteSpace=wrap;html=1;" vertex="1" parent="sDyU43Bn7JAy6TUhjJ2v-43">
          <mxGeometry y="108" width="250" height="142" as="geometry" />
        </mxCell>
        <mxCell id="sDyU43Bn7JAy6TUhjJ2v-50" value="" style="endArrow=none;html=1;edgeStyle=orthogonalEdgeStyle;rounded=0;entryX=-0.004;entryY=0.163;entryDx=0;entryDy=0;entryPerimeter=0;" edge="1" parent="1" target="sDyU43Bn7JAy6TUhjJ2v-23">
          <mxGeometry relative="1" as="geometry">
            <mxPoint x="-1022" y="-208.5" as="sourcePoint" />
            <mxPoint x="-862" y="-208.5" as="targetPoint" />
          </mxGeometry>
        </mxCell>
        <mxCell id="sDyU43Bn7JAy6TUhjJ2v-56" style="edgeStyle=orthogonalEdgeStyle;rounded=0;orthogonalLoop=1;jettySize=auto;html=1;exitX=0;exitY=0.25;exitDx=0;exitDy=0;entryX=1.004;entryY=0.163;entryDx=0;entryDy=0;entryPerimeter=0;endArrow=none;endFill=0;" edge="1" parent="1" source="Xi8M5J_qFJPJecMSVVCh-1" target="sDyU43Bn7JAy6TUhjJ2v-23">
          <mxGeometry relative="1" as="geometry" />
        </mxCell>
        <mxCell id="sDyU43Bn7JAy6TUhjJ2v-57" style="edgeStyle=orthogonalEdgeStyle;rounded=0;orthogonalLoop=1;jettySize=auto;html=1;exitX=0;exitY=0.25;exitDx=0;exitDy=0;entryX=1.004;entryY=0.1;entryDx=0;entryDy=0;entryPerimeter=0;endArrow=none;endFill=0;" edge="1" parent="1" source="Xi8M5J_qFJPJecMSVVCh-1" target="sDyU43Bn7JAy6TUhjJ2v-39">
          <mxGeometry relative="1" as="geometry" />
        </mxCell>
      </root>
    </mxGraphModel>
  </diagram>
</mxfile>
